<svg width="100" height="100" viewBox="0 0 100 100" fill="none" xmlns="http://www.w3.org/2000/svg">
<path d="M4.61768 38.6178V61.1121" stroke="white" stroke-linecap="round" stroke-linejoin="round"/>
<path d="M4.61768 3.57143V26.0657" stroke="white" stroke-linecap="round" stroke-linejoin="round"/>
<path d="M4.61768 73.6643V96.1586" stroke="white" stroke-linecap="round" stroke-linejoin="round"/>
<path d="M48.4062 3.57143V26.0657" stroke="white" stroke-linecap="round" stroke-linejoin="round"/>
<path d="M61.8164 3.57143V26.0657" stroke="white" stroke-linecap="round" stroke-linejoin="round"/>
<path d="M18.7136 38.6178V61.1121" stroke="white" stroke-linecap="round" stroke-linejoin="round"/>
<path d="M18.835 11.9601C18.835 7.32714 22.5907 3.57143 27.2236 3.57143C31.8565 3.57143 35.6122 7.32714 35.6122 11.9601V17.5493C35.6122 22.1821 31.8565 25.9379 27.2236 25.9379C22.5907 25.9379 18.835 22.1821 18.835 17.5493V11.9601Z" stroke="white" stroke-linecap="round" stroke-linejoin="round"/>
<path d="M31.5356 47.0064C31.5356 42.3736 35.2914 38.6178 39.9243 38.6178C44.5572 38.6178 48.3129 42.3735 48.3129 47.0064V52.5956C48.3129 57.2286 44.5572 60.9843 39.9243 60.9843C35.2914 60.9843 31.5356 57.2286 31.5356 52.5956V47.0064Z" stroke="white" stroke-linecap="round" stroke-linejoin="round"/>
<path d="M18.835 82.18C18.835 77.5471 22.5907 73.7914 27.2236 73.7914C31.8565 73.7914 35.6122 77.5471 35.6122 82.18V87.7693C35.6122 92.4021 31.8565 96.1579 27.2236 96.1579C22.5907 96.1579 18.835 92.4021 18.835 87.7693V82.18Z" stroke="white" stroke-linecap="round" stroke-linejoin="round"/>
<path d="M57.1427 67.8571H92.857C94.9999 67.8571 96.4284 69.2857 96.4284 71.4286V92.8571C96.4284 95 94.9999 96.4286 92.857 96.4286H57.1427C54.9999 96.4286 53.5713 95 53.5713 92.8571V71.4286C53.5713 69.2857 54.9999 67.8571 57.1427 67.8571Z" stroke="white" stroke-linecap="round" stroke-linejoin="round"/>
<path d="M60.7141 67.8571V60.7143C60.7141 52.8571 67.1427 46.4286 74.9998 46.4286C82.857 46.4286 89.2855 52.8571 89.2855 60.7143V67.8571" stroke="white" stroke-linecap="round" stroke-linejoin="round"/>
</svg>
