<svg width="28" height="28" viewBox="0 0 28 28" fill="none" xmlns="http://www.w3.org/2000/svg">
<g clip-path="url(#clip0_73_438)">
<path d="M25.8201 11.0002H2.18012C1.06013 11.0002 0.580131 9.78024 1.46013 9.20024L13.2801 1.46023C13.4984 1.33186 13.7469 1.26416 14.0001 1.26416C14.2533 1.26416 14.5019 1.33186 14.7201 1.46023L26.5401 9.20024C27.4201 9.78024 26.9401 11.0002 25.8201 11.0002Z" stroke="white" stroke-linecap="round" stroke-linejoin="round"/>
<path d="M26 22H2C1.44772 22 1 22.4478 1 23V26C1 26.5522 1.44772 27 2 27H26C26.5522 27 27 26.5522 27 26V23C27 22.4478 26.5522 22 26 22Z" stroke="white" stroke-linecap="round" stroke-linejoin="round"/>
<path d="M4 11V22" stroke="white" stroke-linecap="round" stroke-linejoin="round"/>
<path d="M10.6665 11V22" stroke="white" stroke-linecap="round" stroke-linejoin="round"/>
<path d="M17.3335 11V22" stroke="white" stroke-linecap="round" stroke-linejoin="round"/>
<path d="M24 11V22" stroke="white" stroke-linecap="round" stroke-linejoin="round"/>
</g>
<defs>
<clipPath id="clip0_73_438">
<rect width="28" height="28" fill="white"/>
</clipPath>
</defs>
</svg>
