<svg width="28" height="28" viewBox="0 0 28 28" fill="none" xmlns="http://www.w3.org/2000/svg">
<g clip-path="url(#clip0_73_426)">
<path d="M10.4956 25.9634C9.26656 26.7562 7.80194 27.1018 6.34804 26.942C4.89416 26.782 3.53966 26.1264 2.51234 25.0852L1.61421 24.207C1.22046 23.8042 1 23.2634 1 22.7002C1 22.137 1.22046 21.596 1.61421 21.1934L5.42624 17.4212C5.82562 17.0287 6.36316 16.8088 6.92312 16.8088C7.48306 16.8088 8.02062 17.0287 8.41998 17.4212C8.82272 17.815 9.3636 18.0354 9.92684 18.0354C10.4901 18.0354 11.0309 17.815 11.4337 17.4212L17.4212 11.4337C17.6209 11.2369 17.7795 11.0023 17.8878 10.7436C17.996 10.485 18.0518 10.2073 18.0518 9.9269C18.0518 9.64646 17.996 9.36884 17.8878 9.11014C17.7795 8.85146 17.6209 8.61688 17.4212 8.42004C17.0287 8.02068 16.8088 7.48312 16.8088 6.92318C16.8088 6.36322 17.0287 5.82568 17.4212 5.4263L21.2132 1.63423C21.616 1.24048 22.1568 1.02002 22.72 1.02002C23.2834 1.02002 23.8242 1.24048 24.227 1.63423L25.1052 2.53236C26.1462 3.55968 26.8018 4.91418 26.9618 6.36806C27.1218 7.82196 26.7762 9.28658 25.9832 10.5157C21.8518 16.6044 16.595 21.8476 10.4956 25.9634Z" stroke="white" stroke-linecap="round" stroke-linejoin="round"/>
</g>
<defs>
<clipPath id="clip0_73_426">
<rect width="28" height="28" fill="white"/>
</clipPath>
</defs>
</svg>
