<svg width="94" height="84" viewBox="0 0 94 84" fill="none" xmlns="http://www.w3.org/2000/svg">
<path d="M93.4287 62V4.85715C93.4287 2.88472 91.8294 1.28572 89.8572 1.28572H4.14296C2.24856 1.28572 0.571533 2.96272 0.571533 4.85715V62C0.571533 63.8943 2.24856 65.5714 4.14296 65.5714H89.8572C91.7515 65.5714 93.4287 63.8943 93.4287 62Z" stroke="white" stroke-linecap="round" stroke-linejoin="round"/>
<path d="M39.8572 65.5714L32.7144 83.4286" stroke="white" stroke-linecap="round" stroke-linejoin="round"/>
<path d="M54.1431 65.5714L61.2859 83.4286" stroke="white" stroke-linecap="round" stroke-linejoin="round"/>
<path d="M25.5715 83.4286H68.4287" stroke="white" stroke-linecap="round" stroke-linejoin="round"/>
<path d="M29.5488 41.0808C32.9513 44.5413 38.9606 47.7134 47.0001 47.7134C55.0396 47.7134 61.049 44.5413 64.4514 41.0808" stroke="white" stroke-linecap="round" stroke-linejoin="round"/>
<path d="M34.5016 22.7174C33.5146 22.7174 32.7144 21.9172 32.7144 20.9302C32.7144 19.9431 33.5146 19.1429 34.5016 19.1429" stroke="white" stroke-linecap="round" stroke-linejoin="round"/>
<path d="M34.4993 22.7174C35.4863 22.7174 36.2866 21.9172 36.2866 20.9302C36.2866 19.9431 35.4863 19.1429 34.4993 19.1429" stroke="white" stroke-linecap="round" stroke-linejoin="round"/>
<path d="M59.5001 22.7143C58.5139 22.7143 57.7144 21.9148 57.7144 20.9286C57.7144 19.9424 58.5139 19.1429 59.5001 19.1429" stroke="white" stroke-linecap="round" stroke-linejoin="round"/>
<path d="M59.4976 22.7143C60.4838 22.7143 61.2833 21.9148 61.2833 20.9286C61.2833 19.9424 60.4838 19.1429 59.4976 19.1429" stroke="white" stroke-linecap="round" stroke-linejoin="round"/>
</svg>
